<svg width="23" height="18" viewBox="0 0 23 18" fill="none" xmlns="http://www.w3.org/2000/svg">
<path d="M1.41113 2.41527C1.41113 1.75182 1.94897 1.21399 2.61242 1.21399H14.6253C15.2887 1.21399 15.8266 1.75182 15.8266 2.41527V7.27634C15.8266 7.39851 15.8452 7.51997 15.8818 7.63652L16.7397 10.366C17.0576 11.3775 16.0047 12.2748 15.0564 11.8007L12.7166 10.6307C12.5498 10.5473 12.3659 10.5039 12.1794 10.5039H2.61242C1.94897 10.5039 1.41113 9.96609 1.41113 9.30264V2.41527Z" stroke="#A0A0A0" stroke-width="2.00214"/>
<rect x="3.01294" y="3.13611" width="19.5409" height="12.8137" fill="white"/>
<path d="M5.25537 6.57982C5.25537 5.91637 5.7932 5.37854 6.45666 5.37854H18.4695C19.133 5.37854 19.6708 5.91637 19.6708 6.57982V11.4409C19.6708 11.5631 19.6894 11.6845 19.7261 11.8011L20.5839 14.5306C20.9018 15.5421 19.849 16.4394 18.9006 15.9652L16.5608 14.7953C16.394 14.7119 16.2101 14.6685 16.0236 14.6685H6.45666C5.7932 14.6685 5.25537 14.1306 5.25537 13.4672V6.57982Z" fill="white"/>
<path d="M5.25537 6.57982C5.25537 5.91637 5.7932 5.37854 6.45666 5.37854H18.4695C19.133 5.37854 19.6708 5.91637 19.6708 6.57982V11.4409C19.6708 11.5631 19.6894 11.6845 19.7261 11.8011L20.5839 14.5306C20.9018 15.5421 19.849 16.4394 18.9006 15.9652L16.5608 14.7953C16.394 14.7119 16.2101 14.6685 16.0236 14.6685H6.45666C5.7932 14.6685 5.25537 14.1306 5.25537 13.4672V6.57982Z" fill="white"/>
<path d="M5.25537 6.57982C5.25537 5.91637 5.7932 5.37854 6.45666 5.37854H18.4695C19.133 5.37854 19.6708 5.91637 19.6708 6.57982V11.4409C19.6708 11.5631 19.6894 11.6845 19.7261 11.8011L20.5839 14.5306C20.9018 15.5421 19.849 16.4394 18.9006 15.9652L16.5608 14.7953C16.394 14.7119 16.2101 14.6685 16.0236 14.6685H6.45666C5.7932 14.6685 5.25537 14.1306 5.25537 13.4672V6.57982Z" stroke="#A0A0A0" stroke-width="2.00214"/>
<path d="M5.25537 6.57982C5.25537 5.91637 5.7932 5.37854 6.45666 5.37854H18.4695C19.133 5.37854 19.6708 5.91637 19.6708 6.57982V11.4409C19.6708 11.5631 19.6894 11.6845 19.7261 11.8011L20.5839 14.5306C20.9018 15.5421 19.849 16.4394 18.9006 15.9652L16.5608 14.7953C16.394 14.7119 16.2101 14.6685 16.0236 14.6685H6.45666C5.7932 14.6685 5.25537 14.1306 5.25537 13.4672V6.57982Z" stroke="#A0A0A0" stroke-width="2.00214"/>
</svg>
